<svg xmlns="http://www.w3.org/2000/svg" width="40" height="40" viewBox="0 0 40 40">
  <g id="github-original" transform="translate(-3.612 -5.103)">
    <path id="Path_60" data-name="Path 60" d="M23.612,5.1a20.258,20.258,0,0,0-20,20.506A20.472,20.472,0,0,0,17.289,45.068c1,.19,1.366-.445,1.366-.986,0-.489-.019-2.1-.027-3.818-5.564,1.24-6.738-2.419-6.738-2.419a5.4,5.4,0,0,0-2.221-3c-1.815-1.273.137-1.246.137-1.246a4.216,4.216,0,0,1,3.066,2.113c1.784,3.134,4.679,2.228,5.82,1.7a4.41,4.41,0,0,1,1.27-2.742c-4.442-.518-9.112-2.277-9.112-10.134a8.05,8.05,0,0,1,2.061-5.5,7.538,7.538,0,0,1,.193-5.426s1.679-.551,5.5,2.1a18.5,18.5,0,0,1,10.017,0c3.817-2.653,5.494-2.1,5.494-2.1a7.532,7.532,0,0,1,.2,5.426,8.034,8.034,0,0,1,2.058,5.5c0,7.876-4.679,9.61-9.132,10.118a4.968,4.968,0,0,1,1.357,3.8c0,2.744-.023,4.952-.023,5.627,0,.546.36,1.185,1.374.984A20.47,20.47,0,0,0,43.612,25.609a20.258,20.258,0,0,0-20-20.506Z" fill="#fff" fill-rule="evenodd"/>
    <path id="Path_61" data-name="Path 61" d="M26.484,91.806c-.133.3-.6.39-1.035.185s-.685-.605-.543-.906.6-.395,1.04-.188.69.61.537.91Zm-.743-.55,3.189,3.279c-.287.267-.85.143-1.232-.28A.92.92,0,0,1,27.521,93c.3-.266.844-.14,1.24.28s.472.984.17,1.255Zm-.575-.618,2.957,4.095c-.37.258-.976.017-1.35-.52s-.37-1.183.01-1.44.97-.025,1.35.507.368,1.19-.01,1.452Zm0,0,3.261,3.361c-.33.365-1.036.267-1.552-.23a1.164,1.164,0,0,1-.343-1.544c.336-.366,1.045-.264,1.564.23s.686,1.18.333,1.543Zm0,0,4.5,1.951c-.147.473-.825.688-1.51.486s-1.13-.76-.99-1.238.823-.7,1.512-.485S39.215,102.843,39.073,103.324Zm0,0,4.943.361c.017.5-.563.91-1.28.92s-1.308-.387-1.315-.877.568-.91,1.29-.924,1.306.387,1.306.88Zm0,0,4.6-.782c.086.485-.413.984-1.126,1.117s-1.35-.172-1.44-.653c-.086-.5.422-1,1.122-1.126s1.354.17,1.444.663Zm0,0" transform="translate(-13.314 -67.626)" fill="#fff"/>
  </g>
</svg>
