<svg xmlns="http://www.w3.org/2000/svg" width="23.758" height="13.822" viewBox="0 0 23.758 13.822">
  <path id="Path_61" data-name="Path 61" d="M26.484,91.806c-.133.3-.6.39-1.035.185s-.685-.605-.543-.906.6-.395,1.04-.188.69.61.537.91Zm-.743-.55,3.189,3.279c-.287.267-.85.143-1.232-.28A.92.92,0,0,1,27.521,93c.3-.266.844-.14,1.24.28s.472.984.17,1.255Zm-.575-.618,2.957,4.095c-.37.258-.976.017-1.35-.52s-.37-1.183.01-1.44.97-.025,1.35.507.368,1.19-.01,1.452Zm0,0,3.261,3.361c-.33.365-1.036.267-1.552-.23a1.164,1.164,0,0,1-.343-1.544c.336-.366,1.045-.264,1.564.23s.686,1.18.333,1.543Zm0,0,4.5,1.951c-.147.473-.825.688-1.51.486s-1.13-.76-.99-1.238.823-.7,1.512-.485S39.215,102.843,39.073,103.324Zm0,0,4.943.361c.017.5-.563.91-1.28.92s-1.308-.387-1.315-.877.568-.91,1.29-.924,1.306.387,1.306.88Zm0,0,4.6-.782c.086.485-.413.984-1.126,1.117s-1.35-.172-1.44-.653c-.086-.5.422-1,1.122-1.126s1.354.17,1.444.663Zm0,0" transform="translate(-24.866 -90.784)" fill="#fff"/>
</svg>
