<svg xmlns="http://www.w3.org/2000/svg" width="40" height="40" viewBox="0 0 40 40">
  <path id="plain" d="M40.049,3H5.951A2.921,2.921,0,0,0,3,5.885V40.121A2.921,2.921,0,0,0,5.951,43h34.1A2.928,2.928,0,0,0,43,40.111V5.875A2.928,2.928,0,0,0,40.049,3ZM14.859,37.1H8.921v-19.1h5.938ZM11.908,15.39a1.886,1.886,0,1,0-.016-.007ZM37.1,37.1H31.161V27.8c0-2.213-.039-5.062-3.085-5.062s-3.564,2.413-3.564,4.918V37.1H18.584v-19.1h5.692v2.623h.079a6.237,6.237,0,0,1,5.616-3.085c6.013-.013,7.128,3.944,7.128,9.075Z" transform="translate(-3 -3)" fill="#fff"/>
</svg>
